<svg xmlns="http://www.w3.org/2000/svg" xmlns:xlink="http://www.w3.org/1999/xlink" version="1.1" id="Livello_1" x="0px" y="0px" width="200px" height="70px" viewBox="0 0 200 70" xml:space="preserve"> <g> <g> <path fill="#4FAF41" d="M68.607,70c0,0,2.274-6.26-4.349-11.865c-6.623-5.604-25.742-9.332-23.705-18.729 c0,0-11.454,8.606-0.676,16.195C50.655,63.19,65.542,61.831,68.607,70"></path> <path fill="#4FAF41" d="M40.954,39.192c0,0,13.001,6.016,14.587-7.069C57.126,19.036,48.884,6.566,54.63,0 c0,0-6.591,0.959-8.394,9.446C44.432,17.933,50.195,36.539,40.954,39.192z"></path> <path fill="#4FAF41" d="M40.581,39.042c0,0-1.631-14.233-13.628-8.773C14.954,35.729,8.597,49.257,0,47.771 c0,0,4.25,5.128,12.436,2.249C20.62,47.142,33.506,32.533,40.581,39.042z"></path> </g> <path fill="#282833" d="M60.053,33.228V17.275h5.807c1.779,0,3.148,0.327,4.104,0.979c0.957,0.653,1.435,1.572,1.435,2.759 c0,0.86-0.291,1.613-0.873,2.258c-0.583,0.646-1.326,1.094-2.23,1.347v0.043c1.135,0.141,2.042,0.561,2.72,1.257 c0.678,0.697,1.018,1.547,1.018,2.547c0,1.461-0.523,2.62-1.568,3.476c-1.046,0.856-2.473,1.286-4.283,1.286H60.053z M63.646,19.923v3.782h1.58c0.741,0,1.325-0.179,1.751-0.539c0.426-0.36,0.64-0.855,0.64-1.485c0-1.172-0.875-1.758-2.626-1.758 H63.646z M63.646,26.375v4.205h1.946c0.831,0,1.481-0.192,1.952-0.578c0.471-0.386,0.707-0.912,0.707-1.58 c0-0.638-0.232-1.139-0.696-1.502c-0.463-0.363-1.11-0.544-1.94-0.544H63.646z"></path> <path fill="#282833" d="M77.459,33.228h-3.515V16.363h3.515V33.228z"></path> <path fill="#282833" d="M89.326,33.228h-3.327v-1.635h-0.044c-0.763,1.275-1.894,1.913-3.393,1.913 c-1.104,0-1.974-0.313-2.608-0.939c-0.634-0.627-0.951-1.463-0.951-2.509c0-2.209,1.309-3.486,3.927-3.827l3.093-0.411 c0-1.246-0.675-1.869-2.025-1.869c-1.357,0-2.647,0.404-3.871,1.212v-2.647c0.489-0.251,1.159-0.474,2.008-0.667 c0.85-0.194,1.622-0.29,2.32-0.29c3.248,0,4.872,1.62,4.872,4.86V33.228z M86.022,28.6v-0.768l-2.069,0.267 c-1.143,0.149-1.714,0.664-1.714,1.546c0,0.401,0.14,0.728,0.417,0.985c0.279,0.256,0.655,0.383,1.13,0.383 c0.66,0,1.197-0.228,1.612-0.684C85.814,29.873,86.022,29.297,86.022,28.6z"></path> <path fill="#282833" d="M102.682,33.228h-3.514v-1.569h-0.045c-0.801,1.23-1.977,1.846-3.526,1.846 c-1.423,0-2.569-0.502-3.437-1.508c-0.869-1.003-1.302-2.407-1.302-4.209c0-1.884,0.478-3.393,1.435-4.527 c0.957-1.135,2.21-1.703,3.76-1.703c1.468,0,2.491,0.526,3.07,1.58h0.045v-6.775h3.514V33.228z M99.235,27.688v-0.857 c0-0.741-0.215-1.357-0.646-1.846c-0.43-0.489-0.99-0.734-1.68-0.734c-0.778,0-1.387,0.306-1.824,0.918 c-0.438,0.611-0.656,1.451-0.656,2.519c0,1.001,0.211,1.773,0.634,2.314c0.422,0.541,1.008,0.812,1.758,0.812 c0.712,0,1.292-0.285,1.741-0.856C99.01,29.386,99.235,28.629,99.235,27.688z"></path> <path fill="#282833" d="M115.307,28.533h-7.43c0.117,1.654,1.16,2.48,3.125,2.48c1.254,0,2.354-0.295,3.303-0.889v2.535 c-1.053,0.564-2.422,0.846-4.105,0.846c-1.838,0-3.266-0.51-4.281-1.529s-1.523-2.441-1.523-4.266c0-1.891,0.549-3.389,1.646-4.494 s2.447-1.658,4.049-1.658c1.66,0,2.943,0.494,3.854,1.48c0.91,0.986,1.363,2.324,1.363,4.015V28.533z M112.047,26.375 c0-1.631-0.66-2.447-1.98-2.447c-0.563,0-1.051,0.233-1.461,0.701c-0.412,0.467-0.664,1.049-0.75,1.747H112.047z"></path> <path fill="#282833" d="M116.082,32.927v-2.848c0.578,0.349,1.154,0.608,1.73,0.778c0.574,0.172,1.119,0.256,1.631,0.256 c0.621,0,1.111-0.084,1.473-0.256c0.359-0.17,0.539-0.429,0.539-0.778c0-0.222-0.082-0.407-0.244-0.555 c-0.164-0.149-0.373-0.279-0.629-0.39s-0.537-0.211-0.84-0.3c-0.305-0.089-0.598-0.188-0.879-0.3 c-0.451-0.17-0.85-0.354-1.195-0.55c-0.346-0.197-0.635-0.424-0.867-0.685c-0.234-0.259-0.412-0.559-0.535-0.901 c-0.123-0.341-0.184-0.744-0.184-1.212c0-0.637,0.141-1.187,0.418-1.646s0.65-0.836,1.111-1.129 c0.463-0.292,0.996-0.508,1.592-0.646c0.596-0.137,1.217-0.206,1.863-0.206c0.504,0,1.016,0.039,1.535,0.118 c0.52,0.077,1.031,0.19,1.533,0.338v2.714c-0.443-0.259-0.92-0.455-1.428-0.584s-1.008-0.194-1.496-0.194 c-0.23,0-0.447,0.021-0.652,0.061c-0.203,0.041-0.381,0.1-0.537,0.178c-0.156,0.077-0.279,0.177-0.367,0.3 c-0.09,0.122-0.135,0.261-0.135,0.417c0,0.208,0.066,0.386,0.201,0.534c0.133,0.149,0.309,0.276,0.523,0.384 c0.215,0.108,0.453,0.205,0.715,0.289c0.266,0.086,0.527,0.172,0.785,0.262c0.469,0.164,0.891,0.34,1.268,0.534 c0.379,0.192,0.703,0.419,0.975,0.678c0.271,0.26,0.479,0.563,0.623,0.912s0.217,0.764,0.217,1.246 c0,0.674-0.146,1.251-0.439,1.729c-0.293,0.478-0.684,0.868-1.168,1.168c-0.486,0.3-1.045,0.519-1.68,0.656 c-0.635,0.138-1.293,0.206-1.975,0.206C118.311,33.505,117.152,33.312,116.082,32.927z"></path> <path fill="#282833" d="M71.488,52.146h-2.224l-2.669-4.472c-0.245-0.416-0.483-0.77-0.712-1.062 c-0.23-0.295-0.465-0.533-0.706-0.718c-0.241-0.187-0.501-0.321-0.779-0.407c-0.278-0.085-0.591-0.128-0.94-0.128h-1.536v6.786 h-1.868V36.193h4.761c0.697,0,1.341,0.088,1.93,0.262c0.589,0.175,1.101,0.44,1.535,0.795c0.435,0.356,0.773,0.8,1.019,1.33 c0.244,0.529,0.367,1.151,0.367,1.863c0,0.557-0.084,1.065-0.251,1.529s-0.403,0.877-0.712,1.239 c-0.308,0.364-0.679,0.674-1.113,0.93c-0.433,0.256-0.921,0.455-1.461,0.595v0.046c0.266,0.116,0.498,0.254,0.694,0.405 c0.196,0.152,0.384,0.333,0.562,0.539c0.178,0.207,0.354,0.444,0.528,0.707c0.174,0.264,0.369,0.569,0.584,0.917L71.488,52.146z M61.921,37.885v5.785h2.537c0.467,0,0.899-0.07,1.296-0.211c0.396-0.143,0.739-0.344,1.029-0.608 c0.289-0.262,0.514-0.586,0.679-0.967c0.163-0.382,0.244-0.811,0.244-1.285c0-0.853-0.276-1.518-0.829-1.997 c-0.552-0.477-1.351-0.717-2.397-0.717H61.921z"></path> <path fill="#282833" d="M83.459,46.906h-8.042c0.028,1.268,0.37,2.246,1.022,2.938c0.653,0.689,1.55,1.033,2.692,1.033 c1.283,0,2.462-0.422,3.538-1.267v1.712c-1.001,0.728-2.325,1.089-3.971,1.089c-1.609,0-2.874-0.516-3.793-1.55 c-0.92-1.035-1.379-2.49-1.379-4.367c0-1.772,0.502-3.216,1.507-4.333c1.004-1.114,2.252-1.675,3.743-1.675 c1.491,0,2.643,0.483,3.459,1.447c0.816,0.964,1.224,2.303,1.224,4.016V46.906z M81.59,45.359 c-0.007-1.053-0.261-1.872-0.763-2.458c-0.5-0.585-1.195-0.878-2.085-0.878c-0.86,0-1.59,0.307-2.191,0.922 c-0.601,0.617-0.972,1.422-1.113,2.414H81.59z"></path> <path fill="#282833" d="M88.655,50.498h-0.044v6.887h-1.825V40.754h1.825v2.003h0.044c0.897-1.513,2.21-2.271,3.938-2.271 c1.468,0,2.614,0.512,3.438,1.53c0.823,1.021,1.235,2.387,1.235,4.1c0,1.907-0.464,3.432-1.39,4.578 c-0.928,1.146-2.196,1.717-3.805,1.717C90.595,52.411,89.457,51.774,88.655,50.498z M88.611,45.904v1.591 c0,0.941,0.306,1.741,0.918,2.397c0.611,0.657,1.388,0.984,2.33,0.984c1.105,0,1.971-0.422,2.598-1.267 c0.626-0.847,0.94-2.021,0.94-3.528c0-1.267-0.293-2.261-0.879-2.98c-0.586-0.72-1.38-1.078-2.38-1.078 c-1.061,0-1.914,0.367-2.56,1.105C88.934,43.868,88.611,44.792,88.611,45.904z"></path> <path fill="#282833" d="M108.604,52.146h-1.826v-1.78h-0.043c-0.793,1.365-1.963,2.046-3.504,2.046c-1.135,0-2.023-0.299-2.665-0.9 c-0.642-0.6-0.962-1.396-0.962-2.391c0-2.129,1.252-3.366,3.759-3.716l3.414-0.477c0-1.938-0.781-2.904-2.346-2.904 c-1.373,0-2.611,0.466-3.715,1.4v-1.868c1.12-0.711,2.409-1.069,3.872-1.069c2.676,0,4.016,1.419,4.016,4.25V52.146z M106.777,46.384l-2.746,0.378c-0.846,0.119-1.484,0.327-1.912,0.628c-0.432,0.3-0.646,0.832-0.646,1.597 c0,0.557,0.197,1.01,0.596,1.362c0.395,0.354,0.924,0.528,1.582,0.528c0.906,0,1.654-0.316,2.244-0.949 c0.59-0.636,0.883-1.438,0.883-2.41V46.384z"></path> <path fill="#282833" d="M113.543,37.862c-0.326,0-0.604-0.111-0.834-0.334c-0.23-0.221-0.344-0.504-0.344-0.846 c0-0.34,0.113-0.624,0.344-0.85c0.23-0.225,0.508-0.339,0.834-0.339c0.334,0,0.617,0.114,0.852,0.339 c0.234,0.226,0.352,0.51,0.352,0.85c0,0.328-0.117,0.606-0.352,0.835C114.16,37.748,113.877,37.862,113.543,37.862z M114.436,52.146h-1.826V40.754h1.826V52.146z"></path> <path fill="#282833" d="M124.826,42.602c-0.32-0.245-0.777-0.368-1.379-0.368c-0.779,0-1.43,0.368-1.953,1.103 s-0.783,1.733-0.783,3.003v5.807h-1.824V40.754h1.824v2.348h0.045c0.258-0.8,0.654-1.426,1.189-1.874s1.131-0.673,1.791-0.673 c0.475,0,0.838,0.052,1.09,0.154V42.602z"></path></g></svg>